<svg xmlns="http://www.w3.org/2000/svg" viewBox="0 0 430.81 512"><defs><style>.cls-1{fill:#4b4b4b;}</style></defs><g id="レイヤー_2" data-name="レイヤー 2"><g id="_2" data-name="2"><path class="cls-1" d="M354.31,363.89l-.21-.08c-9.13-3.45-18.07-6-26-8.13-5.24-1.43-10-2.7-13.93-3.91-4.56-23.54-.59-62.14,18.4-119.13C345,195.37,405.1,0,215.41,0S90,194.22,98.19,232.64c10.2,47.59,25.19,96.74,19,118.43A170.05,170.05,0,0,0,86.36,365c-38.18-8.17-96.64,29.27-84.81,100.29,1.22,8.49,19.1,15.68,44.58,21.49,1.95.71,3.87,1.44,6,2.15C87.66,501,146.21,512,215.41,512c58,0,106.87-7.53,141.79-17,8.75-2.37,16.61-4.86,23.55-7.4,27.55-5.95,47.23-13.43,48.51-22.35C440.11,400.15,391.84,363.27,354.31,363.89Zm-36,79.92c-5.36,0-52.79-16.63-102.89,3.05-50.11-19.68-97.53-3.05-102.9-3.05-4.27,0-8.51-46.45-14.59-67.22,15.46-8.43,30-12.35,42.25-16.63,8-2.86,14.75-5.89,20.05-10.93a25.88,25.88,0,0,0,6.17-9.06,30.11,30.11,0,0,0,2-11.22V292.62l-2-2.24c-10.74-12-25.28-27.83-30.32-56l-.8-4.51L131,228.28A27.84,27.84,0,0,1,124.3,225c-2.69-1.91-5.13-4.5-8-9.82s-5.81-13.18-9.07-24.63a43.93,43.93,0,0,1-1.94-11.8,13.79,13.79,0,0,1,1.3-6.57,6.66,6.66,0,0,1,3.77-3.19,10.81,10.81,0,0,1,2.83-.61l7.62,1.62A42,42,0,0,1,125,179s-5.37-16.11,8.95-37.58c14-20.93,73.81-2.8,111.63-56.56,37,43.6,37.79,14.94,51.22,35.08,14.32,21.48,8.95,59.06,8.95,59.06a42.27,42.27,0,0,1,4.82-9.84l6.62-.71a10.07,10.07,0,0,1,4.66,1.33,6.24,6.24,0,0,1,2.31,2.49,13.77,13.77,0,0,1,1.32,6.56,44.08,44.08,0,0,1-1.95,11.8c-4.34,15.29-8.23,24.19-11.81,29.12a21.26,21.26,0,0,1-5.24,5.33,27.84,27.84,0,0,1-6.65,3.24l-4.31,1.54-.79,4.51c-5,28.22-19.59,44.09-30.32,56l-2,2.24v36.14a22.73,22.73,0,0,0,4.77,13.58c4.19,5.62,10,9.78,16.34,13.4a138.41,138.41,0,0,0,19.82,9c7.8,2.9,17.74,5.18,28.61,8.35l1.86.56C327.23,392.58,322.79,443.81,318.3,443.81Z"/></g></g></svg>