<svg xmlns="http://www.w3.org/2000/svg" viewBox="0 0 401.14 512"><defs><style>.cls-1{fill:#4b4b4b;}</style></defs><g id="レイヤー_2" data-name="レイヤー 2"><g id="_2" data-name="2"><path class="cls-1" d="M397.61,429.75a79.93,79.93,0,0,0-31.53-45.44,129.31,129.31,0,0,0-21.17-12.25c-10.94-5.12-22.13-9.06-32.44-12.87s-19.78-7.53-27.09-11.86a57.81,57.81,0,0,1-7.21-4.95,31.44,31.44,0,0,1-7.29-8.5,27.15,27.15,0,0,1-3.41-11,83.89,83.89,0,0,1-.47-8.85,106,106,0,0,1,2.77-22.73,98.59,98.59,0,0,0,12.84-18.86A204.46,204.46,0,0,0,294.2,246a53.28,53.28,0,0,0,7.29-4,52.45,52.45,0,0,0,14.93-15.6c4.32-6.81,7.78-15.28,10.14-25.73a38.67,38.67,0,0,0,1-8.61,39.29,39.29,0,0,0-3.75-16.64,44.6,44.6,0,0,0-6.12-9.62c1.23-4.55,2.73-10.69,4.06-17.86a191.17,191.17,0,0,0,3.38-34.53,127.37,127.37,0,0,0-2.28-24.79,90,90,0,0,0-5.63-18.26A68,68,0,0,0,300,46.2a71.48,71.48,0,0,0-27.13-14.73,98.8,98.8,0,0,0-14.3-14.11A76.59,76.59,0,0,0,232.64,3.64,92.7,92.7,0,0,0,205.77,0c-4.74,0-9.46.27-14.21.69-4.43.4-8.12.86-11.42,1.42A78.18,78.18,0,0,0,167.2,5.39c-3.95,1.36-7.75,3-12.73,4.91-1.89.75-4.36,1.84-7.36,3.36A129.61,129.61,0,0,0,128,25.56a122.86,122.86,0,0,0-32,34.85A108,108,0,0,0,84.5,86.55a116.16,116.16,0,0,0-4.44,32.28,142.49,142.49,0,0,0,2,23.17c0,.56,0,1.12.07,1.66.06,1,.17,2.06.28,3.15.17,1.61.36,3.28.5,4.69.08.69.14,1.31.19,1.81a5,5,0,0,0,0,.6v1.14l2,8.83a46.47,46.47,0,0,0-7.23,10.43A39.17,39.17,0,0,0,73.63,192a38.58,38.58,0,0,0,1,8.59A89.55,89.55,0,0,0,80.7,219a57.27,57.27,0,0,0,13.63,18.81A50,50,0,0,0,107,246a204.48,204.48,0,0,0,11.6,26.48,96.73,96.73,0,0,0,12.83,18.84,107.34,107.34,0,0,1,2.76,22.75,83.4,83.4,0,0,1-.45,8.85,28.44,28.44,0,0,1-1.94,7.94,27.69,27.69,0,0,1-6.31,9.28,51.11,51.11,0,0,1-10.67,7.79A124.85,124.85,0,0,1,100,354.86c-9.55,3.86-20.41,7.52-31.44,11.89a180.41,180.41,0,0,0-24.63,11.78,100,100,0,0,0-17,12.46,77.57,77.57,0,0,0-19.5,27.53C2.63,429.72,0,443,0,458.67a17.2,17.2,0,0,0,1.23,6.27A22.44,22.44,0,0,0,4.08,470a39.21,39.21,0,0,0,8.44,8.17c6,4.47,14.07,8.64,24.48,12.58,15.59,5.87,36.5,11.14,63.52,15S160.64,512,200.58,512c34.59,0,64.11-1.81,88.94-4.79a409.19,409.19,0,0,0,48.23-8.44,230.43,230.43,0,0,0,26.6-8.11,127.48,127.48,0,0,0,15-6.69,76.76,76.76,0,0,0,8.66-5.34,39.83,39.83,0,0,0,9.19-8.82,23.16,23.16,0,0,0,2.82-5.17,17.24,17.24,0,0,0,1.11-6A111.52,111.52,0,0,0,397.61,429.75Zm-214.5,7.55-59-75.47a71.66,71.66,0,0,0,8.73-5.94,51.46,51.46,0,0,0,8-7.94l42.92,19.92-9.15,15.29,14.18,15Zm-36.2-99.42a44.71,44.71,0,0,0,3.39-13.26,100.22,100.22,0,0,0,.56-10.56c0-10.94-1.81-20.15-3.61-28.5l-.51-2.26-1.6-1.69a79.12,79.12,0,0,1-11.87-17.05,201.72,201.72,0,0,1-11.83-27.69l-1.31-3.7-3.69-1.36a34.41,34.41,0,0,1-7.44-3.75,35.63,35.63,0,0,1-10.16-10.65c-3.12-4.93-5.93-11.54-8-20.47a22.24,22.24,0,0,1,2-15.16,29.14,29.14,0,0,1,5.5-7.53c3.84,5.81,7,10.41,8.17,11.55,3.75,3.76,2.58,2.61,3.83.75,0,0,4.26-6,26.83-49.89,45.14,10,124-57.77,124-57.77a83.34,83.34,0,0,0,16,42c14.27,19,22.41,63.71,22.41,63.71s1.94-3.68,4.83-8.61a28.08,28.08,0,0,1,4.22,6.47,22.47,22.47,0,0,1,2.18,9.59,22.94,22.94,0,0,1-.54,4.92,73.15,73.15,0,0,1-5,15,40.58,40.58,0,0,1-9.61,13.43,33.41,33.41,0,0,1-11,6.51L281,233.16l-1.31,3.7a201.53,201.53,0,0,1-11.83,27.7A77.89,77.89,0,0,1,256,281.62l-1.59,1.69-.5,2.28c-1.82,8.32-3.63,17.55-3.63,28.47a103.21,103.21,0,0,0,.55,10.57,45.13,45.13,0,0,0,2.94,12.15c.06.17.14.35.21.5L203.19,364ZM222.13,440l-6.08-41.83,14.2-15-9.19-15.35,38.83-20.4a44.64,44.64,0,0,0,3.42,3.95,63.47,63.47,0,0,0,13.07,10.06Z"/></g></g></svg>