<svg xmlns="http://www.w3.org/2000/svg" viewBox="0 0 401.94 512"><defs><style>.cls-1{fill:#4b4b4b;}</style></defs><g id="レイヤー_2" data-name="レイヤー 2"><g id="_2" data-name="2"><path class="cls-1" d="M398.47,429.8a82.34,82.34,0,0,0-8.23-20.19,81.33,81.33,0,0,0-23-25.2,126.23,126.23,0,0,0-21-12.32c-10.86-5.15-22-9.09-32.3-12.89s-19.78-7.48-27.23-11.75l-.82-.47a52.72,52.72,0,0,1-7.17-5,31.07,31.07,0,0,1-7.34-8.5,27.4,27.4,0,0,1-3.41-11,36.57,36.57,0,0,1-.45-6,129.11,129.11,0,0,1,2.78-25.66A98.36,98.36,0,0,0,283.17,272a205.75,205.75,0,0,0,11.63-26.56,50.59,50.59,0,0,0,22.26-19.68c4.32-6.82,7.8-15.31,10.16-25.78a38.8,38.8,0,0,0,1-8.64,39.52,39.52,0,0,0-3.75-16.67A45.71,45.71,0,0,0,318.3,165c1.23-4.56,2.75-10.7,4.08-17.89a193,193,0,0,0,3.37-34.58,128.15,128.15,0,0,0-2.28-24.84,92.75,92.75,0,0,0-5.64-18.32,68.15,68.15,0,0,0-17.27-24.15A70.92,70.92,0,0,0,273.39,30.5a93.41,93.41,0,0,0-11.73-11.91,65.52,65.52,0,0,0-10.52-7.28,60,60,0,0,0-16.75-6.19,85.6,85.6,0,0,0-17.64-1.65c-8.36,0-17.16.84-26.86,1.79-3.67.38-6.76.83-9.42,1.3-4,.72-7,1.47-9.36,1.94a28.1,28.1,0,0,1-3.28.53,20.23,20.23,0,0,1-3.17.22,37.77,37.77,0,0,1-5.6-.47,124.37,124.37,0,0,1-18.62-4.19c-2.55-.76-4.75-1.53-6.47-2.18-.84-.32-1.59-.63-2.2-.88s-1.05-.47-1.32-.59a8.06,8.06,0,0,0-2.2-.77A8.27,8.27,0,0,0,126.49,0,9.75,9.75,0,0,0,124,.31c-.6.18-1.07.35-1.49.52a14.07,14.07,0,0,0-2.06,1.06,34.33,34.33,0,0,0-3.39,2.33A80.51,80.51,0,0,0,110.49,10,108.11,108.11,0,0,0,99.74,22a75.52,75.52,0,0,0-4.8,7,50.61,50.61,0,0,0-3.72,7.53,201,201,0,0,0-10.3,35.79,165.25,165.25,0,0,0-2.83,30.29c0,15.11,2.11,27.92,4.13,38.74,0,.51,0,1,.08,1.53,0,1,.15,2.06.26,3.15.18,1.64.36,3.32.5,4.71.08.7.14,1.32.19,1.81,0,.23,0,.45,0,.61l0,.15v0h0v.94l2,8.84A45.64,45.64,0,0,0,78,173.63,38.65,38.65,0,0,0,74.74,200h0a88.47,88.47,0,0,0,6.12,18.39,57.47,57.47,0,0,0,13.66,18.84,49.46,49.46,0,0,0,12.64,8.22A203.9,203.9,0,0,0,118.78,272a97.57,97.57,0,0,0,12.85,18.88,131.12,131.12,0,0,1,2.78,25.7,36.35,36.35,0,0,1-.47,6,29,29,0,0,1-1.92,7.94,27.31,27.31,0,0,1-6.35,9.3A49.32,49.32,0,0,1,115,347.56l-3.31,1.79c-3.55,1.81-7.44,3.53-11.58,5.21-9.55,3.88-20.44,7.52-31.5,11.93A178.42,178.42,0,0,0,44,378.27a100.45,100.45,0,0,0-17.06,12.48A78.65,78.65,0,0,0,7.38,418.33C2.62,429.56,0,442.85,0,458.56a17.09,17.09,0,0,0,1.22,6.28,23.28,23.28,0,0,0,2.86,5.1,39,39,0,0,0,8.47,8.19c6,4.47,14.11,8.64,24.51,12.59,15.63,5.89,36.58,11.19,63.64,15S161,512,201,512c34.69,0,64.25-1.8,89.14-4.78a418.16,418.16,0,0,0,48.33-8.47,226.24,226.24,0,0,0,26.66-8.13,125.91,125.91,0,0,0,15-6.71,70.49,70.49,0,0,0,8.7-5.35,40.53,40.53,0,0,0,9.21-8.81,23.14,23.14,0,0,0,2.81-5.2,17,17,0,0,0,1.11-6A111.83,111.83,0,0,0,398.47,429.8ZM128.06,87.16C173.28,97.2,261.69,78,261.69,78a83.35,83.35,0,0,0,16,42.05c8,10.64,14,29.23,17.83,43.64-.13,0-.27,0-.41-.07-2.23-.31-2.62-1.7-2.89-2.9-.56-2.7-3.09-3.52-7.14-4.06a186.94,186.94,0,0,0-32.23-1.07c-38.52,1.88-35.66,5.38-50.8,5.38s-12.27-3.5-50.78-5.38a187.1,187.1,0,0,0-32.25,1.07c-4,.54-6.56,1.35-7.13,4.06a3.09,3.09,0,0,1-2.9,2.9H109C110.25,146.48,126.24,125.08,128.06,87.16ZM284.53,184c0,.2-.17,22.3-15.18,29.86a41,41,0,0,1-18,4,36,36,0,0,1-18.19-4.5A23.87,23.87,0,0,1,222,199.06c-.44-1.44-.84-2.91-1.22-4.31-1.2-4.32-4.4-16.22,2.39-21.49,4.38-3.42,18-5.57,31-5.57,11.85,0,23.89,1.62,27.43,5.31C283.92,175.41,284.83,179.77,284.53,184ZM183.38,194.75c-.39,1.41-.82,2.87-1.24,4.31a23.89,23.89,0,0,1-11.09,14.32,36.21,36.21,0,0,1-18.2,4.5,41,41,0,0,1-18-4c-15-7.56-15.19-29.65-15.19-29.86-.3-4.26.61-8.62,2.94-11,3.53-3.69,15.58-5.31,27.42-5.31,13,0,26.6,2.16,31,5.58C187.77,178.53,184.56,190.44,183.38,194.75Zm1,235.91-53.35-73.55q1-.74,2-1.53a53.2,53.2,0,0,0,8-7.94l43,19.95-9.19,15.3L189.16,398ZM147.2,337.53a45.56,45.56,0,0,0,3.41-13.28,52.18,52.18,0,0,0,.55-7.7,149.59,149.59,0,0,0-3.63-31.44l-.51-2.28-1.58-1.69a78.31,78.31,0,0,1-11.91-17.09,202,202,0,0,1-11.86-27.74l-1.29-3.72-3.72-1.34A34.23,34.23,0,0,1,99,216.81c-3.12-4.95-6-11.56-8-20.51a23.32,23.32,0,0,1-.56-4.94A23,23,0,0,1,93,181.12a30.12,30.12,0,0,1,5.52-7.56c3.84,5.81,7,10.42,8.17,11.58s2.14,1.09,2.7,0c.73,8.23,4.14,26.73,20.2,35.27,20.28,10.76,50.52,6.73,60.78-17.24,4.66-10.81,4.72-21.39,11.71-21.39s7.06,10.58,11.7,21.39c10.28,24,40.53,28,60.78,17.24S295,183,295,181.16c0-1.1,1.14-1.9,2.7-1.9a2.52,2.52,0,0,0,1.49-.48c.67,3.19,1,5.1,1,5.1s2-3.69,4.83-8.63a29,29,0,0,1,4.27,6.5,22.91,22.91,0,0,1,2.17,9.59,22.13,22.13,0,0,1-.56,5,73.17,73.17,0,0,1-5,15,40.9,40.9,0,0,1-9.63,13.46,33.83,33.83,0,0,1-11,6.52l-3.7,1.34-1.32,3.71a201.35,201.35,0,0,1-11.86,27.78,78.56,78.56,0,0,1-11.9,17.08l-1.61,1.7-.49,2.27a148.48,148.48,0,0,0-3.64,31.4,55.22,55.22,0,0,0,.55,7.72,45.65,45.65,0,0,0,2.94,12.17c.08.17.15.35.23.53l-50.9,26.74Zm74.55,96.63L216.5,398l14.22-15.08-9.22-15.36,38.91-20.45a44.71,44.71,0,0,0,3.44,3.94,58.16,58.16,0,0,0,7.18,6.21Z"/></g></g></svg>