<svg xmlns="http://www.w3.org/2000/svg" viewBox="0 0 361.32 512"><defs><style>.cls-1{fill:#4b4b4b;}</style></defs><g id="レイヤー_2" data-name="レイヤー 2"><g id="_2" data-name="2"><path class="cls-1" d="M351.23,409.59c-9.47-18.27-24.32-30.19-39-38.38s-29.53-12.9-39.46-16.63a135,135,0,0,1-25-12.28,43.11,43.11,0,0,1-8.58-6.94l-.09-.13h88.84l-2.16-9.48c-3.67-16.12-4.83-32.79-4.83-52.81,0-30,2.61-67.26,2.61-120,.08-53.18-21-92-49.38-116.76S210.36,0,180.66,0s-65,11.3-93.47,36.12S37.72,99.69,37.78,152.86h0s0,.07,0,.08c0,52.79,2.61,90.08,2.6,120.05,0,20-1.14,36.65-4.81,52.76l-2.17,9.48h88.73a10,10,0,0,1-.71.81c-3.18,3.28-8.89,7.21-15,10.52a128.24,128.24,0,0,1-17.7,8c-13.5,4.79-35.37,11.37-54.25,26a87.45,87.45,0,0,0-24.43,29C3.77,421.67,0,436.54,0,454.32c0,3.68.16,7.5.5,11.44A13.18,13.18,0,0,0,2.76,472a28.93,28.93,0,0,0,8.18,7.56c5.9,3.91,14,7.67,24.32,11.37,30.95,11,82.06,21.11,145.4,21.12,51.46,0,94.9-6.68,125.94-15.08,15.53-4.21,27.93-8.81,36.94-13.44a55.52,55.52,0,0,0,11.13-7.22,21.91,21.91,0,0,0,3.89-4.31,13.08,13.08,0,0,0,2.27-6.19q.5-5.89.49-11.4C361.33,436.57,357.54,421.74,351.23,409.59Zm-95.14-39.17c-5.79,6.63-15,14-27.54,19.61s-28.46,9.62-47.89,9.63c-25.9,0-45.56-7.07-59.31-15.74a73.85,73.85,0,0,1-16.12-13.5,46.17,46.17,0,0,1-3.42-4.42,134,134,0,0,0,19.69-10.36,62.09,62.09,0,0,0,12-9.78,27.73,27.73,0,0,0,4.29-6.07,17.18,17.18,0,0,0,2-7.79V299.67l-2-2.21c-5.09-5.64-12.67-13-19.68-22.5-6.9-9.38-13-20.69-15.47-33.9V161.27H258.73v79.79c-2.42,13.21-8.58,24.52-15.49,33.9-7,9.54-14.59,16.86-19.68,22.5l-2,2.21V332a17.34,17.34,0,0,0,1.86,7.64,32.36,32.36,0,0,0,8.1,9.9,91.38,91.38,0,0,0,17.3,11.34c3.58,1.87,7.2,3.54,10.73,5.07A44,44,0,0,1,256.09,370.42Z"/></g></g></svg>